<mxfile host="app.diagrams.net" modified="2023-12-13T19:30:01.252Z" agent="Mozilla/5.0 (Windows NT 10.0; Win64; x64) AppleWebKit/537.36 (KHTML, like Gecko) Chrome/120.0.0.0 Safari/537.36 Edg/120.0.0.0" etag="nEZtpgd-HsESc-8YgWC5" version="22.1.8" type="device">
  <diagram name="Page-1" id="PFz9vu34ZkgzNscwJ6UN">
    <mxGraphModel dx="2253" dy="751" grid="1" gridSize="10" guides="1" tooltips="1" connect="1" arrows="1" fold="1" page="1" pageScale="1" pageWidth="827" pageHeight="1169" math="0" shadow="0">
      <root>
        <mxCell id="0" />
        <mxCell id="1" parent="0" />
        <mxCell id="ZH4Me8C_m8PBGEsoMYlz-4" style="edgeStyle=orthogonalEdgeStyle;rounded=0;orthogonalLoop=1;jettySize=auto;html=1;entryX=0;entryY=0.5;entryDx=0;entryDy=0;" parent="1" source="Hy3fTrSyOvGKFOA6QSp1-7" target="ZH4Me8C_m8PBGEsoMYlz-2" edge="1">
          <mxGeometry relative="1" as="geometry">
            <mxPoint x="160" y="170" as="sourcePoint" />
          </mxGeometry>
        </mxCell>
        <mxCell id="ZH4Me8C_m8PBGEsoMYlz-13" style="edgeStyle=orthogonalEdgeStyle;rounded=0;orthogonalLoop=1;jettySize=auto;html=1;exitX=1;exitY=0.5;exitDx=0;exitDy=0;entryX=0.5;entryY=0;entryDx=0;entryDy=0;" parent="1" source="ZH4Me8C_m8PBGEsoMYlz-2" target="ZH4Me8C_m8PBGEsoMYlz-12" edge="1">
          <mxGeometry relative="1" as="geometry" />
        </mxCell>
        <mxCell id="Hy3fTrSyOvGKFOA6QSp1-3" value="p&lt;sub&gt;k&lt;/sub&gt;" style="edgeLabel;html=1;align=center;verticalAlign=middle;resizable=0;points=[];" vertex="1" connectable="0" parent="ZH4Me8C_m8PBGEsoMYlz-13">
          <mxGeometry x="-0.1591" y="-1" relative="1" as="geometry">
            <mxPoint as="offset" />
          </mxGeometry>
        </mxCell>
        <mxCell id="ZH4Me8C_m8PBGEsoMYlz-2" value="Convert to 1D" style="rounded=0;whiteSpace=wrap;html=1;" parent="1" vertex="1">
          <mxGeometry x="250" y="140" width="120" height="60" as="geometry" />
        </mxCell>
        <mxCell id="ZH4Me8C_m8PBGEsoMYlz-10" style="edgeStyle=orthogonalEdgeStyle;rounded=0;orthogonalLoop=1;jettySize=auto;html=1;exitX=1;exitY=0.5;exitDx=0;exitDy=0;entryX=0.5;entryY=0;entryDx=0;entryDy=0;" parent="1" source="ZH4Me8C_m8PBGEsoMYlz-5" target="ZH4Me8C_m8PBGEsoMYlz-9" edge="1">
          <mxGeometry relative="1" as="geometry" />
        </mxCell>
        <mxCell id="ZH4Me8C_m8PBGEsoMYlz-15" value="x&lt;font size=&quot;1&quot;&gt;&lt;sub&gt;k&lt;/sub&gt;&lt;/font&gt;" style="edgeLabel;html=1;align=center;verticalAlign=middle;resizable=0;points=[];" parent="ZH4Me8C_m8PBGEsoMYlz-10" vertex="1" connectable="0">
          <mxGeometry x="-0.2706" y="-1" relative="1" as="geometry">
            <mxPoint x="-2" y="-1" as="offset" />
          </mxGeometry>
        </mxCell>
        <mxCell id="ZH4Me8C_m8PBGEsoMYlz-5" value="Vilnius oscillator 1" style="rounded=0;whiteSpace=wrap;html=1;" parent="1" vertex="1">
          <mxGeometry x="80" y="270" width="120" height="60" as="geometry" />
        </mxCell>
        <mxCell id="ZH4Me8C_m8PBGEsoMYlz-11" style="edgeStyle=orthogonalEdgeStyle;rounded=0;orthogonalLoop=1;jettySize=auto;html=1;exitX=1;exitY=0.5;exitDx=0;exitDy=0;entryX=0.5;entryY=1;entryDx=0;entryDy=0;" parent="1" source="ZH4Me8C_m8PBGEsoMYlz-6" target="ZH4Me8C_m8PBGEsoMYlz-9" edge="1">
          <mxGeometry relative="1" as="geometry" />
        </mxCell>
        <mxCell id="ZH4Me8C_m8PBGEsoMYlz-16" value="y&lt;font size=&quot;1&quot;&gt;&lt;sub&gt;k&lt;/sub&gt;&lt;/font&gt;" style="edgeLabel;html=1;align=center;verticalAlign=middle;resizable=0;points=[];" parent="ZH4Me8C_m8PBGEsoMYlz-11" vertex="1" connectable="0">
          <mxGeometry x="-0.2889" y="-1" relative="1" as="geometry">
            <mxPoint x="-4" y="-1" as="offset" />
          </mxGeometry>
        </mxCell>
        <mxCell id="ZH4Me8C_m8PBGEsoMYlz-6" value="Vilnius oscillator 2" style="rounded=0;whiteSpace=wrap;html=1;" parent="1" vertex="1">
          <mxGeometry x="80" y="390" width="120" height="60" as="geometry" />
        </mxCell>
        <mxCell id="ZH4Me8C_m8PBGEsoMYlz-14" style="edgeStyle=orthogonalEdgeStyle;rounded=0;orthogonalLoop=1;jettySize=auto;html=1;exitX=1;exitY=0.5;exitDx=0;exitDy=0;entryX=0.5;entryY=1;entryDx=0;entryDy=0;" parent="1" source="ZH4Me8C_m8PBGEsoMYlz-9" target="ZH4Me8C_m8PBGEsoMYlz-12" edge="1">
          <mxGeometry relative="1" as="geometry" />
        </mxCell>
        <mxCell id="ZH4Me8C_m8PBGEsoMYlz-9" value="" style="rounded=0;whiteSpace=wrap;html=1;" parent="1" vertex="1">
          <mxGeometry x="240" y="330" width="140" height="60" as="geometry" />
        </mxCell>
        <mxCell id="Hy3fTrSyOvGKFOA6QSp1-5" style="edgeStyle=orthogonalEdgeStyle;rounded=0;orthogonalLoop=1;jettySize=auto;html=1;exitX=1;exitY=0.5;exitDx=0;exitDy=0;entryX=0;entryY=0.5;entryDx=0;entryDy=0;" edge="1" parent="1" source="ZH4Me8C_m8PBGEsoMYlz-12" target="Hy3fTrSyOvGKFOA6QSp1-4">
          <mxGeometry relative="1" as="geometry" />
        </mxCell>
        <mxCell id="ZH4Me8C_m8PBGEsoMYlz-12" value="XOR" style="rounded=0;whiteSpace=wrap;html=1;" parent="1" vertex="1">
          <mxGeometry x="400" y="240" width="120" height="60" as="geometry" />
        </mxCell>
        <mxCell id="Hy3fTrSyOvGKFOA6QSp1-1" value="" style="shape=image;verticalLabelPosition=bottom;labelBackgroundColor=default;verticalAlign=top;aspect=fixed;imageAspect=0;image=data:image/png,iVBORw0KGgoAAAANSUhEUgAAAT4AAABiCAYAAADJA78IAAAAAXNSR0IArs4c6QAAAARnQU1BAACxjwv8YQUAAAAJcEhZcwAADsMAAA7DAcdvqGQAACeeSURBVHhe7Z0HXBTHF8d/d8cBokhTUVHiXw1q7DRRBGtUYsWSqLHGaGJssScWLLEnGhVjS9TYYmKwgiUoqICCjSZSFASxUBRE6h3c3vvvwak0qQeizPfjKcyOezt7N7+defPmPQHxgMFgMKoRQuW/DAaDUW1gwsdgMKodTPgYDEa1gwkfg8GodjDhYzAY1Q4mfAwGo9rBhI/BYFQ7mPAxKhkZ4m//g/WLN+BMNKcsYzAqFyZ8jEojNcQJiwe0QjPLUfhx4z5cimLCx3g3MOFjVAIp8N89FpaWn2Pt+US0GP8LzgTexC+26srjDEblwrasMSoWeRz++2EQRm68gZfqJhi39xx2jWoKDeVhBuNdwISPUXHIE+H+Yx8M+fk2UsVN8cXv/2H/uOZg4zzGu4YJH6OCkOPRX6PQedy/eCKvBetVnri4qD00lUcZjHcJs/ExKgR5wkksXnAMTzhA3HY6Ns1hoseoOjDhY1QAHKIObIXTU171BNroOXUqzJnqMaoQTPgYqkf+CKdPX4eEeN3TMMNnnxm9V180SXworrochdN/gYiXKQsZHxRM+BiqJysUwfezoDAeCw1bobVhGb9m0ljcueICp6OncMkvCknldfuTpyPppVT5SyFwvGAvsEWzVkOw2vkCdk2yQEtbB3i+VB5nfDAw4WOoHi4RCUny7B+F2rrQEWX/WArSEHx4GqybdcTIDadwK8ADBxfaoa3pSKy7+ISfSJeBNE8s7WQEgzpN8Nn2kELOIcOdjaMx9tcH6Op4AacXfYKsZ5l4cf137POUKOu8D8jx1OMQDl2KRLqyhFEIilVdBkOlpB0iey2BYsBH4raL6VaWsrxEcPT46Bhqol6P+m8PIYmylOgFXXOwIu3aZrTwUiJfq3TI7v5EFmLFIFRAWoP+pCRl+WsyLtC3xiJSaz6LrijeVOJH277sRl0++5FcYkr7bu+SDLr0Y0fSVdMko87jafWxIHrxPl1+JcGEj6F6yiN8qRfpu2ZqpNb6B7ouVZa9Is2NpjVVI3H7JXQr/7HikEXTibl9yKzTUFrr8UJZ+AZZ+AayFgtIo99ueq4se3+RUYL/P7R8tAXVVxeTQbuh9OOfPhRTqgfQhw2b6jKqFC/P/oF/Ign1rGzQPr+ns1YX2HWvCy5oH7a7pioLS4ioMYb88h9u+RzDDza6ysJcSCRQWP9ENbRQI6fkPUYE/fafY9nhGwi/ewqLO7/AkWnWMGnVB9O3uSGSzYGZjY9RlZDC+4InkuRCNG7WDGrK0jeowdi4IURcHLzc/ZGpLGW8nZrN7TB7pzvC7l3Br/ZauOxgh09MumDC2hO4q7TDVkeY8DGqDtxT3A2NBwcBdPT0+L/zI4S+fm2+nEOU323ElrDfZkZ64MjeHfh13Qosnjcbv119M+SRvwyG23EnHHMLw0t+cs7F+uKUkxOcnI7hhHd06RdS0p/C79wB/Lp6Lbb9exOxSnVOi7iAvRt+wqqNf+JieClHqypAvaE1Jm04iYDwWzgwpSlCto5Cx+YdMWzRAVyPK5/PjqJtezaswvpd5xCapizMQyqi74QgtogF9cqGCR+j6iCLQuRjhZoJoK5Zo5AvpxBaWjX4owT504eILmF/ld49g993bcG65SuwZuMOnAt7M1akRD+c3L8P+0/cxjM5Ieu+K/bs24d9/Oug2wOURhK4R6cx67PhWOuZhDpNteG3+lOYD98J/9ubMXrsDjw0aAzZ5aUYYNEHa26/m/GqSL8dRjgcwvXwuzi9pAuS/v4O1h+3Qp8Z2+BWhjnwS4+lsBu6BeHaOri3dTC62G/DvTxPCw6R24ehfQdTjNsXqyyrAihtfQyG6ijr4kbGSRpXV8j/Pw0afCBNWZiXlD8HkQZ/XmHDSXTmzZJvCUij0xPqk5A/d/89hSxuBK0kczFIvccWii7LKmjKFVrQ2YZ+9Hi14sxRzG+9SV2oRTr1bWh1gJRkERvJVoO/L4KaNGhfYnatd470KV3ds4CGtNYjsaYRdZmwjs5HlfADk/jQIssu5HCT/yC4x7S1hzoJNHrTb3lWweNpz4BaJBAZ0ddnM5Rl7x424mNUHeQSZGRv9xAo/hSKQJhzjFJTkFqqeaha9jS5Yr7wMtx1XAJ32/VwsNFTvgchPV0CkmcAnb7C5DbqEOiYwNS0JUwHL8UCe73sWu8c9Qbo8tVq7Nq7BiOME+G9fzXWHgtXHiyaF86OOGb8HWaa84+iF+645JcFga4RjGrnusvp3vC4yY8ka1rC1qrq7FtkwseoOgjVoCZSKp5ivFgImZlZ/CyFF0A1McSl/Pa+TUzLjTwRvhHGmPKNZa5ADBL4+4eAE9SAlV0/GPDXKjQYgF+vBeP2iYWw1lFWe6dIEH1lF2b3bw2Trgtwo8kkOF4IxNk5LZXHiyIT94OS0HPMABhAjmdnTuBSsgD1+g5BTy1lFZ5Mfw/4JBDE7a3RtbaysArAhI9RdRDURK2aiuEcgeMKG87JIZVmZmuiQKsmtCpKyEqLsB7G/nEIk/+Xa4tKZgC8b72EXK0NbGzrFt3R5LG4vMMB82ZMwcRxi+BU4blIUhDm/DO+7maCVp8ugpvmMGz1vI+Q/xwxrVcT5NKtIlCH5XIXbB/MK7j8GVyc3PFS0BADvvgU2soaCvtelOc1PJCJ0LyLDYxe3x45Yi/vgMO8GZgycRwWOZVhEamcMOFjVB1EjdCovuIrSZBK+CliAQgZGdJs4RPWb4zGBf1dqgzco6vwjuSg1sQa3ZoVt2dPDJ0GjZDqfRAHnMMgrV3qPX4lg3uG20eWYaRZc7T7fDPuNvkWB30j4H9sDcZ1MizEfaiEJF2As2cyhA3sMKxnTWWhgkR4ed2BTFgXVjbt8gSgFes0QKNUbxw84IwwaW1UUIvfChM+RtVBrQk+MdHmv5SEFwnPCxkFcIiLf84fFaBmMxMYV3ZvKQVJHp4IzBJAz8oWHXP3eLkEaen5/HCEBug4wBKG/ChX3MFG9VNC6SN47JqDAa0/RudvDiPBagnOBN+H9/5FGNpGt9wikO51Edf4aa5+t37omtuMl+4Nz2z7ngVs8tj3hDDoOACWhhw4cQfYvIM5MBM+RhVCC11szVFDwOFxZBSylKVvkOHpk3jIBTVg2d2mhFOyykEuSUHKaz+1dFzzuIk0fozTrpNlrp0gcsTsH43ey30KOF/LYzzhGQqYWPNTQlX1ytQwuPwyGd1NWqL3ogtQH7IZHveCceG3Gej9P1XdPRnCbwciUa6GNpYWeT6TzABPeCvse+26osBmGXkMPHMaDBuVNbjkMOFjVCGEqG8/Gp/yneT5TW+E5Heiy/THtVsvAb1PMXKQYam/vK+SLBSWbEFRlFNcyMFiSHKbD3NDPdTtuABeCkVLvwLni88gFxmhdZs6b65Tchvbd8egz+fmBfKOpHh5wE9WD1ZdW+eackqRmlZ652IuwQ9Hlo2EebN2GL7pDhpP3o/b4QE4vm4CrOqrOuOJHCmpaSD+YVSvvkGuz4TDfbfLeMCJ0LSLDRrnH52neMHDT4Z6Vl3ROtccW8qfq3zu1CWDCR+jSiE0HIllcyyhEXwIjmf40Z2yXNHB4p134p+IGjCfuRijGpbiqyuXQZryFGGRCfxZ+PM8vIeEdJny3HJwmWmICw5HHF8gfxKKgNhUSGWc8nhxSOF/6jgCk+UgsTovaDKE/rENt/SaQZsf10kkyrPIHsF53hxc6bUB88zzi48UNz1vIFXh8tGJnxLKE+HjOA1jxozHQNOWsN9dMveSHNJwcmYffHPwGSwWncbd+z44uGQ42upVVFdXRyvz9tARpOPpozileUKOF9fWYvpmX2QJDArY9xRIb3riRmpNWNp2giZfP9HHEdPGjMH4gaZoab9bWasCUfrzVQ5cPF075koRMuXv1R3+flw97koPShtppKpTrrBUPFlRdHyGGenrtaGRK/6k0+dO04E146ijvgGZfXeUIkp1vizydzAjTbEmadXSIV1dHdKuqUnqNbrQujAZyULXUGdNMWlo1aLaurqkq6NNNWto8BrWlKa5lcxDOvnqSupmqEdth86gWeN6k/UXOygo+S7tHvExGbaxpxmzJ5O9VXvqvdSN4gpzjs7yJ4cOYlK33UQPkvxo51dDaOqBEEoOXE5mYiEZTnRWViwh0jTKqMw+Jg2lvaNMSLueFU1c5EDzxvUii84dqbFYQIJaA2hPvLLeaxSfSQf+HtvSpgdJ5LfzKxoy9QCFJAfScjMxCQ0nKutVHOUUvhSK9HGhf46cpKuRqcqyt8A9ppPTu9Oni90onsUHU5JBAduGUtfPd1NQqXYhVHHKK3zZyOi533Ha9tOPNGv6LFq4Yhsd842lqvqM4FKi6Ka7G3lHJPFX/gopxQZ5kOs5d/J9+Pb+wUVvpZ6aamQyZgXNGWJPS11jcnZ/pIXQSccd5BpZphtYyUiy2+ryrxOd84mgqMMjyEAoIK1ejvQwf3/nomlrT01SMxlDK+YMIfulrpSz2SONQk460g7XyOxqFUnZhU8SRDuHNSN9k4H0/fwvybRBC5rk9OQtASJT6cbqHmTxrQsTvQKk0c2fepDltDOFjwbeR1QifNWHpCMjSFcoJJFIk5r3n0sbj3jTk/IofFocPbgfRmFhZXjdf0gJJX5vKQUfnEmDew8hh/PP3/R9Lob2DtIloagBjToaX1ATko7QCF0hf1xEms3709yNR8i7XA0uPWUUviy6s7Yz1VT7mGZeiqJDw+uRUCCgGoP3U7KyRm7Sri0is7bTya2wgwz+dgbRWtuWNP543FseHO8ZCuGroRS+dkuY8BWJhC5ONSa12kPozydP6MbhGWSpI6ZGY53KOEjIIOeJij3Jr9drSvniR55zryrPVQxpJ2hsHcXeajG1X+LLq0IOL1ynUnOxiAwH/UEPCplySy5OJWO12jTkzyf05MZhmmGpQ+JGY8mpEkdFZbN4Zvpg776byNC1RDezLMTEJoNE9dC7v3VBFwPZXTjOP4BG3/+A7m9cuhm5UWuNaUt7wPuHFXCv/IhFKkee/BIpnKIfAQJd/eztWoy3IAuFh08MhB1sYGvYEBYjf8BYMwHiAvwRLQdS/5uLiVsjlJVLgiYG7AzBk8fRiI4uw+vxY9xa10V5ruKQQy4wgNmXK7B+avvs1ei0u3sx9bt9SDBbiL/2TkTuzSw5yBDq4YMYYQfY2BqiocVI/DDWDIK4APjnNBhzJ25V1q1AlAJYKrJuLaa2YgGpd9tEUbxIy15EUvCDxNeKn5uE4+OosfEkcklRFjAKJyuQVlroU7eNoblsRO8nUq85ZKKmGD0Iqd64k/xknvE2uGhH6qkppjaLbub0Hy6aNvdQJ/Xev1GM7CntHdadHKrskFlC/lvtycJmFM12WELfj+1LbRs3p16zDlLg2/o73z7HnpokbrOIbuY0mKI39yB1dUVUFxk93TuMujvcyq5akZRB+DiK3dmXNAUi+t9091zJYAqBiyTHXjrUbMalousxeGT0YFM3qmkyh7ze65slo+DVliRWBM0T6tKwQ1Uk/FIVJcNlEjVQb0Hzrr6ycXH08Mh4MjG2omH2ttRvsTslVHH7R9rDG3TOyYnO+kRQYnEaneFCkxqoU4t5V18vVHEPj9B4E2OyGmZPtv0Wk3slNLgMwieh81MakUhQg+x2F1inzkPWnZVkrmlM37hWnThcVRmFa4WVRiP6+kwxK+RVGekN+rGNmBShBkRNptA5ZtctmqznFBmZUGC2JIkPp9Do5A/D5puHLHoeGUkJBRtM4aHRlFxJDS6x9UX+IgSXnE/h5Im/cNwnDpxQF+IED5w8dQpnrkagoGmKQ4TLWQRqWqJbCeJwpT/1w7kDv2L12m3492ascktPGiIu7MWGn1Zh458XUfkRuxXvvwcbVq3HrnOh/G+FkBqNOyGx2Ylqyovofzbo/FEcXJ29VXK+ykeOR4dX4/fgLJBQH73nz8enzK5bNGoGaNJEv0CAAI26zdCisWLf8oeGGgyaNIF+wQajWYvG0K6kBpf4bWQhzvjN0RGOWzfh5N0sCNSEeOy6nf+dL9vjhqj8+0zkz3H5cgCohSk6FrktkMOj07Pw2fC18Eyqg6baflj9qTmG7/TH7c2jMXbHQxg0luHy0gGw6LMGlRex+yU8ltph6JZwaOvcw9bBXWC/7Z7SM10JF4ntw9qjg+k47CtpAoiiUG8Ps9aaiLl6GUGVsW9Hxcgf/Y35Di5IkAtRt+8qbP2meaVH3WAwSoJAMexT/lwiZEErYWW6DIHtVsDXxwFt8iv3K6TumN6yLw5ZHMKTo18gd7Ca3KR6LESfJSKsP7UKNoptNfJYbO/7EWZcq4F6Zgvw38WFqLWtJz6Z54FMrUHY++gUJlRC8Frp9cWwnaOG39xXwPS5I3o3nYVrttsQ9d93yI6cpODZXgxs+jXO6UyCc/jvsCt+YFsMmbg2rx2672yJ3x+fxPhCsiAWRI4Er53YcDQE6aX6JHMhEEHPYiIWjm3/1s+pWFJuYv1gOyy6lAjNttPhdHEz7Op9eOMVxodBqb+ZGYGBCJcJoftJOzR9m+gpkMXg6TOCTh2Dt8f5Uri6LHGH7XqHHNFTQOlIlxByInZPRht1AXRMTGHa0hSDly5A5UTsfgFnx2Mw/m4mcqJqX4JflgC6RkbIG1XbAzlRtW2hmqjaItSpwzcwMxZPY0semjEzKR6xcXGIK/MrFk/iX6Ksg0zZo/NYOmgAFl9+AW2zGfj73K9M9BhVm2xLX4mRks+CVqQGMXX9OaJot4v4ndRXQ41M5ni9dZsRF3eAJn25O6+TY+ox+tJASAKtvrQzT9KSSkR6nZb1n0onk/ifuXjab69LQmF9Gncit6VeSlfntiA1gTrZ/PJARS4oHEVv6UHq4jb0442q6sKQi6Q7dHT5KDKto0YCtXrUZcZhusvclhjvAaV8LL9E4J0ocCJDtG5vVLT9JnvFmP+3iEQHwnpj8cehyXmcHDMDvHHrpRxqbWxgW/cdjRrULbHcZTtyomq7wMn9JQQNB+CL3JZ6Lgqe1x5AJmqOLjbF3ItSIFTcrlf3rkrD4d6Oyfhy+RH4JmjA9IeTcN06Gp/UUh5mMKowpVMWaRACQjIBtZZo31asLHwLAmGO5pWqB3N4dNUbkZwamlh3Q7ERuyshV0HSBWd4JgvRwG4Y8kbV9oLXHRmEda1g0y5X0J1yXpNc+bAQVvmZoggm0/bgyIrRMDOQwnfdIPSadghBH8DOE8aHT6m6lzwuAEFPOYg+aou2+sX815q1UFONIMnIyN4EWDKS4OEZiCyBHqxsO+aJ4SWXpCF/xO6Kz1WQDq+L15As0Ee3fl1zZdBS2Pc8c+x7Fjb57HvluSZCRrriftVELe23j5TzIsdTl2UYM2wohg4t42vYcHz1iwd/90uJ9icY5nAYPrdPY5G1ELd2jEfX7rPg/ET1DyAGQ5WUSvgyAwIQKhNAo2V7tC4ukKuoPhrUFeBlQkIRRnM5JCkpb3zW0q/B42YaP9Vsh06WbwJ2K8JU7x/dG8t98vmyVHSuAlk4bgcmZmfKsrTIE1QbAZ7eSCAx2nW1QZ7F13JdE4fnz1/w7a+PhoYlF0xN3QYw/ugjfFSOV6N6tQsEiywpasZ2WOXsjJ+66SLltiNG2s3GuXgVuPcwGBWF0tZXAmR0d5UF39XzRmJ4K1ws7exbg8Sd1lBooZb/F3RxXkeqLdKgVvM9sxdA0s5OpkYikFqzmXQ514pIxo0lZGXlQDcLWSVRxDLroSmmtotvFX9NxFG8+xoa1W8wTd8fVPw2OqkXzTFRI4HOF/RP7g2nsiD6yVxMArWWNN+74EWV7ppyk0yHhmq/t6GcuIeH6HMjET/AF1Idu+0U9r5vOmZ8sJRixJeBOwH3IeNHNKaWLd7uovIKYR1069YegjBf+PJTwgJI/XHqeCCS5QSxOj/WkIXij223oNdMmx9QSfAmYrcz5s25gl4b5qFAxG6eUuUqkMfDae0K/H3+FH6bvhAHi3M6Vm8F8/Y6EKQ/xaM45fRN/gLX1k7HZt8sCAzy2feUlDl/QmYgfIMkaGDdPU8egvcFofEo/LzcDvpCOZ7/twQzdobndfhmMKoIJRc+WQgCQvhpaA0zWCvyAhSLCM0HfoZ2khu44iNRluVCwwwjJ3SFoW4LNE/+C5Ptvsa1gQdx9cRG2GuewrzRMzFnylDYDNwK/RVOWGlT2N6nUuYqEOrBtEtbaAuF0JCH4lZAwTxeedHHsJ9+xhf/88eG0ZOxeNl8jO/TF/OORyCZBNBS2PcK7Eope/4ELtIT16IN0Wdg5zz2xPcHIYzHLsKkFrxq8+12+3kDXFOUhxiMqoRy5FcsXOwu6ldDQGLLVRRc0imMMjpL07dGceEoJeomubt5U0RSrpNKYynIw5XOuftSERG7qWy5CrIoKfYJeS35jKaeK2EYFInielzoX6dz5BMRRYdHGJBQoEW9HB8W3ERe5vwJMorYaEs1W8x9z6OzZFHQSjMSK1ZqhLo09FCCsvz9ISMuhLyc/6F/zwdQ3HtocmAUT5HCJ0uKoqCwuGz7W8bZSWQk0iCrNcGlctZNPDmBGjeeRM4V4Nha9lwFyXR0XH9aV7jxMQdpMB2cOZh6D3Gg88/fyBsXs5cG6QpJ1GAUHS0kYmyZrykrkFaY61OPTWEqcoZ+d0g9Z9PHynh8dVUQj08We5NcfZ4WfMiUFi6NXiQV8VSRRdOp+TbUUL8F2U35mnobqZNe56XkoXBkZ3xQvFX4uNh/aXwTMQnEn9BCn1TyWfgJiWv1pm2KyKOlISuI1lk3okF7Hpf/i5uPsuYq4OL/obF9l5FfEU/ztBNjqY4ipb+4PS3xfVXxBblObU5ikSEN+qPw3RplvaZk16lkYjKNLn4AOx+4mN+ot7pC+MCPfDdSZFk/eMkTurZ/IfVrokEaPbbS4/J8gVI9aIm5LgnV6pPdb4U9vLMocH1Xqq1mRJ8fjqasqE3UTdEGYX2a6MzCqn1ovFX4sgMk8h1foN2Dfg1wo5km2mS66CqVpV+meS8m87bT6aJKY7OVMVcB95zOz+hGn/8ZXaQQpx37kurWNaMv15ynJ9kVUyloz0hqrqlHVovcKNcgMBdlvKasO7TWphVNYDk3eDLIdXEvsjI1ofo6BtT0I4Ps/BHqPbZQdDlujuzuT2QhVoixgLQG/UkFBnEZF+hbYxGpNZ9FVxSDQokfbfuyG3X57EdyeVdbJxkVxttHfAmuNLuDIbWyn0FT7VqSSf8t5F/mB18a3VzTkyymnFZdJjGFLa2jwpa2MWevL/eEHHuqv+5oKefn0IQt4Tl1c5Fxfhb1mPAXRRU3n5T401Z7C7IZNZsclnzPjxDbUuPmvWjWwcC3i3+ZrimVrq/oQZ2msyxrOcgo0us4nTzvRcGxEkreN5A0VCB8imnsibl9yKzTUFrr8UJZ+AZZ+AayFgtIo99ueq4sq46kRAZQcDUwbBa9uJERTddd/qXjbnfpeXFCURzcU3L+vgf1WnCeYlXQwSsnV0EaPbxxjpyczpJPROE5RXJT+mtKJd/NQ6jrqD8o+L1e0MiHCtNLqkz4ikEWtJLMeeHTsj9UDXOEKHIYH6FlI83IUF2TTJf5Kss/XIp2Z9FsDMv+w2Hf8xMYlHc3mLABBmx0wlprcdnjxuUiM9AfIfKm6Ne/XY6vnNAI9lNGocm9g5g+YiSOtnTArI7ldYbTgrFFPwwbZodOTfWK9V0s9TXJ0yFtOguHD0xCK753MxiVixSPPHdj7sA2aG7xFfY8bofv/7kNd4eOyuMfLqUORFplkCUg6rEAjfKF7ZY+i0CUpB4+fhdhu6viNb0L0g9jaN2xOME/4fgRH7x9V8GsuKfGW0j5cxDqTnQG9diC8Isz0bgMNzAz0gPHLt1FbHw8nj9PQkP71ZhmneOAKX8ZjEtuwUh4fBJL5v6FaIvZ2DenM8QQQGRkgUGdjUsXeSf9KfyuXMRl3ycQm/TG8MEWqK8OpEVcwD/HfPBU1BhWg4ejd/N3GcYmFffO7MLPv2zFX14v0ejTCfh+wWxM7P5RmfxHFW37+9h1PNcxw+AxdmhZIJptKqLvPIK6SSvUryIP+Pe3H1bFXAXVLn/C+4H07hn8vmsL1i1fgTUbd+Bc2Js935Toh5P792H/idt4Jidk3XfFnn37sI9/HXR7UKrgrNyj05j12XCs9UxCnaba8Fv9KcyH74T/7c0YPXYHHho0huzyUgyw6IM1lZdD4Q1cAvz+XoZR5s3QdugG+BlOwO8+9xF8djOmllH0Xnoshd1Q/qGkrYN7Wweji/023MuzXYdD5PZhaN/BFOP2xSrLqgDZE14GQ5VUSRtfGp2eUJ+E0KD+ewpZ3Mi28ZXjfVKu0ILONvSjR6JyZZ6jmN96k7pQi3Tq29DqACnJIjaSrQZ/XwQ1adC+Sky7KYmmK7vmUP8WOqSm9RF1n/wLuYSpwG9K4kOLLLuQw00J39zHtLWHOgk0FPlxc9/AeNozoBYJREb09dmq4xbEBiGMaoIa9PVrV9CoW4a7jkvgbrseDjZ6yvcgpKdLQDk5FDC5jToEOiYwNW0J08FLsaAyciikhsHll8nobtISvRaeh2jgL7h0LwyXds9Ff5PyT7VfODvimPF3mJmTnwGX/LIg0DWCUd78DPDIyc8AW9XkZ1AJTPgY1YYigoGXD3kifCOMMeUby1zTRQn8/UPACWrAyq4fDPieJjQYgF+vBeP2iYWw1lFWqwDkif44smwkzJu1w/BNgWj89Z+4HRGIUz9/ja5GqjKyZeJ+UBJ6jhkAA8jx7MwJXEoWoF7fIeiZa/96pr8HfBIU+wCsVR82rhww4WMwyouwHsb+cQiT8+ZQgPetl9mxHG1s6xbd0VQaSVyK/xYOwNiV/yKiySyc8vXGwaUj0E6/vG4Z+VGH5XIXbM/JzwAXJ3e8FDTEgC8+xZtwIhyiPK/hgUyE5l1sYPT6EuSIvbwDDvNmYMrEcVjkFF3pUXyY8DEYFQD36Cq8IzmoNbFGt2JzKKgykrgG+m44i79WjMTH0VswsK05Pl96GLfiy5pDrwQkXYCzZzKEDewwLG9+Bnh53YFMWBdWNu3yBLoV6zRAo1RelA84I0xaW2U5a0oKEz4GowJI8vBEYJYAela26Ji7x8slSMufQ0HFkcSFeu3wucNh3Ai/i1OLLPH80Dfo/HFr2M3ajksPCwkRV07SvS7iGj/N1e/WD11zm/HSveGZk58BNnnse0IYdBwAS0MOnLgDbN7BHJgJH4OhAuSSFKS8yaGAax43kcaPcdp1ssSbJApyxOwfjd7LfZDfmUUe4wnPUMDEmp8SqqpX1mwOu9k74R52D5c3DYb6xcXo06o5un61DieD+Wm4slr5kCH8diAS5WpoY2mBPAkaAjzhrbDvtesKm/zJ8eUx8MxpMGxU1uCSw4SPUcV55V9ffj/7V676hbnsZ/vevP6pdCS5zYe5oR7qdlwAL4WipV+B88VnkIuM0LpNnTedTHIb23fHoM/n5gXym5Q5andJUG8I60kbcCowArf3T0GToC0Y2aEZTIcvxoHrcWVOJJ+DHCmpaSBBDdSrb5BLUDjcd7uMB5wITbvYoHH+uWyKFzz8ZKhn1TVPtHEpf64KnJS/hgkfo+oh5yCTZSI9MQKuXmHZhm8u0g9XIxORnimDjCvlWEUugzTlKcIiE/huKkf8w3tISJcpRzxycJlpiAsORxxfIH8SioDYVEhlnPJ4cUjhf+o4ApPlILE6L2gyhP6xDbf0mkGbH9dJ3uRQgPO8ObjSawPmFcihUPao3aVCpI92Ixxw6EY47p5eAqsXR/Cd9cdo2Wc6HC9G8uPUsqCOVubtoSNIx9NHccpFCjleXFuL6Zt9kSUwKGDfUyC96YkbqTVhadsJmnz9RB9HTBszBuMHmqKl/W5lrQpE6c/HYKiOcjkwS8ljTkvSqlGTtGvrkK6uHunpKV66pKtTm7Rr1qAaH31D50sc1CGL/B3MSFOsSVq1FOfT4c+hSeo1utC6MBnJQtdQZ00xaWjVotq6ivfQppo1NHgNa0rT3Er2JslXV1I3Qz1qO3QGzRrXm6y/2EFByXdp94iPybCNPc2YPZnsrdpT76VuhUfgKXPU7vIipSdef9D8wa1JT6xBDa3G0SqnO5RYWgduaSjtHWVC2vWsaOIiB5o3rhdZdO5IjcUCEtQaQHvilfVeo/hMOvD32JY2PUgiv51f0ZCpBygkOZCWm4lJaDhRWa/iYMLHUD0q3LnxvsClRNFNdzfyjkjKFeRUSrFBHuR6zp18i8ihUPZI4qpCRgkBR2nll5bUQEODOjqUJTqLJLutLv860TmfCIo6PIIMhALS6uVID/MLKRdNW3tqkprJGFoxZwjZL3WlnM0eaRRy0pF2uEZmV6tImPAxVE81FL7yUNao3RVB2tNwephU0iGflIIPzqTBvYeQw/nnb4LocjG0d5AuCUUNaNTR+ILBdZOO0AhdIX9cRJrN+9PcjUfIu5IbzGx8DMY7RYpbHteRWmsQ9kRH4K/RmfjnW1t0+voYnpXSlKkKtBo0g7FOCWUh/SzWzt6GUxfP4JRX9GubaJLbSqw5l4K6/X/C6qEFnbeltzxwPbUWBu2JRsRfo5H5z7ew7fQ1jlVig5nwMSoAwZvtYYpZhfJHRiHIQuHhEwNhBxvYGjaExcgfMNZMgLgAf0TzOpD631xM3BqhrFzVkEMuMIDZlyuwfmr77NXotLt7MfW7fUgwW4i/9k5E7s0sOcgQ6uGDGGEH2NgaoqHFSPww1gyCuAD45zQYcyduVdatOJjwMVSPSB8GujlfLXnKC7ys7P1I7xEK/z2vEMCkq63S5YMDxz8pBPUawEgQg39/94Wx9UfZdascWv0xf2lXCKPv4L9dyzB7XD90tluLZ/1/x5ULq9FTsUE5Pwr/vZwGw1bp48LlNBgNjASI+fd3+BpbZ5dXKMopL4OhOrhI+rW7JvGDPhJo9qAtBazbjFdkJ/VSb0Hzrr6ycXH08Mh4MjG2omH2ttRvsTslVPHbl/bwBp1zcqKzPhGUWJw9N8OFJjVQpxbzrmanrVXAPTxC402MyWqYPdn2W0zuldDg9zcCM6MKwyFiU0+0mecBCbTRd3sQzn5rzKYXhVHtonbLkBD1GIJGTaCft8GIiJKg3seNoV0JDWbCx6gQ5M+OYXzHL3DoiRzitgvhcWMtqlA4NkY1hz2EGRWCsK49Vq8fmh2KKCtoG2ZvuFXGnQEMhuphwseoIIQwHrUTB+eZorYgFddXDcf4vWEFNuczGO8CJnyMikOojx5rzsBpfifocA9x7LuB+PpQOF4HMWEw3hFM+BgVi9AQn667gEs7xqCVOByHJlii87if4RKqqrBIDEbpYYsbjEojNfQY1i9YhC1n7iNV7WPMvnAHG23zx+1gMCoeJnyMSkaGZ/4nsP/4Q7SePBt2BQK1MRgVDxM+BoNR7WA2PgaDUe1gwsdgMKodTPgYDEa1gwkfg8GodjDhYzAY1Q4mfAwGo9rBhI/BYFQ7mPAxGIxqBxM+BoNR7WDCx2AwqhnA/wFKfSRzFB3oBgAAAABJRU5ErkJggg==;" vertex="1" parent="1">
          <mxGeometry x="245.1" y="340" width="129.8" height="40" as="geometry" />
        </mxCell>
        <mxCell id="Hy3fTrSyOvGKFOA6QSp1-2" value="" style="shape=image;verticalLabelPosition=bottom;labelBackgroundColor=default;verticalAlign=top;aspect=fixed;imageAspect=0;image=data:image/png,iVBORw0KGgoAAAANSUhEUgAAALAAAAAwCAYAAACxB/CGAAAAAXNSR0IArs4c6QAAAARnQU1BAACxjwv8YQUAAAAJcEhZcwAADsMAAA7DAcdvqGQAABHCSURBVHhe7Z0JWFRV/8e/swIii6AiL4i4obkrSpiioli5ZJhab7mkWfaq2WJmvS6YWVr9/5qJSpqar5VWmrtJqGgqgvsGgooIBoILQqyDM3e+/wtedcxhmWF8n/h3P88zD8+ce2bm3HO+53e+Z7kPCopARqaGopT+ysjUSGQBy9RoZAHL1GhkAcvUaGQBy9RoZAHL1GhkAcvUaGQBy9RoZAHL1GhkAcvUaGQBPzKMuBG7EbtSBOn93x2xPg5twq7Lt6X3tkEWsAUUpB7Gjp9+wJZDqSiU0sxjRMaWt/D8rBNQOSmktL87SjjVvoqvRo3E1wklUpoNKD3MI1MZOsZ/NYRN3fz4zNvvcXgnT7YYu4EZgnT5TxQc+YTBXf7F7dfLyfA3pvDoHAYHTOSOa7apG1nAVUB/dh67OqrZ/M29TP1uKOsrFVQ4PMv/5EkZTCk8xGn+bfnGHnMXZcTaZPy8Hmz58kbaQsM11ELcxo3EGERuXItVK77Buk2ROJSUDYN01bbcRtyqb3C02BUBPf2hz8xCHlWoHzIA3WpJWe5hQEL4e1jj/TY+6OUkpck8iBqtJ85EcOwHmB1dIKVVA0nINQNdGqMXjmOfFu7UKtSs5epErdKOzq4OVCm0rPtYX44P38f0Eim/LdAf4/S2Giq0PbkgVQwZhhxePpfCW3rpuinZGzmqoQ/Hbs+XEmTMo+eZj7rQred8JhmkJCupMRFYd/57vPZ4O/T77Cx8Ri1CdEoOsn+diOZ2/ph+NAc3k3bi86F1cCisL9p0nYCfkm0zUTBmH8OxiwYovdqiQwOxulSu8H2sMeqopQz3MCJ17RJs0T6LESG1pTQZ86jRasSLaHtsGZbHVbOdJCH/pSk5t5QDPWvRN3QBY7PvGyf94Q/Y2uEJfnbxfjfWp0dyRi8P2nkN5tfnzYVJy9BFjqO3SkGHfst5XUozi/4sP+psT5/Xo1gsJclUgCGJcwPt6P3qDhZISdZQpQicH78Zi+Z+goXr4pAlGU1DzgUcWL8U/zN/JbYc/h1Fd5JtT+FBzHrpfZzquhi71r+DQLeKi6z2egpzduzA7Oa/YfJLHyFOJ12wBGMOEvduw5bNm7B2YxyuCUq4arKxf/MWbNkRg0tmrJtwaTt+OWMv+uRA2Etp5VJ0FSd3rsEXn8zD4vVHkSUtjRZe2oVVn8/Bx/NXY3eyDfyhhZT+/srPP8Zny3Yiyew6YQGunE1Eli0GN1VjBHVthGtR2xBbje+rVMC3ExZg6OjvUOB2CxvG90LPtyORsncOBoW8jjUXNGjgdBGLn2uHoHd+QZZR+pDNEJAUMR0ROcOw5OuX0eyhYbscavljyjefokdaOKYvTxa/xUIMidi2JBzh4YuwYHMC9Ao1lOlRWCq+Dw9fiT2pf54uGnFz3z6cZgt06vjQzO4BhN+34q3+QzHvQC7qNnHCyU/6ovPQr3Dq+EK8NDICae4NYdg3EwO7PIm5x2276F8Rf+yfiX7PfYlkJxdcWPQsnhi8GBceqDgBl5cOQfsOnTDqmywprTpo0d6/NewzY7AvvhrTbykSl0MuN77cgSPWZ4vj+GG+30pNhZ0rG/aYyqjMu8O2gQlzulCj8uGrO2y8dFRykJP9nNjri0virzyMOQtxnxIe+Xcb2rf+gIetndSJtmC2v4bQ+HP22YrsiI57JvpS7TKMP1Q0Hub/xqldg/jv/bd4xwgJzFwSIk5Ea9GlQRA/OV1Cw6X57GGnIBSOHPTNrbJcjxxdHKcFPMGwozqxSOlcFKwV2zmESzJN17muc+XA2lSovPjqL7YxSSUx77KFxpHPrs6RUiyn4gicvws/H+uE5/u5iaE4DWmZYojV+uO9b+aibwOVlEkF3ybe0BjTseWHPTa1EobTOxB1NQBDh/mKv2IpWnR84Tm0TPkVO5Ks7OHFZ3AmWZzAubZCuyYVhX8DMq/eAF3qwr3cbKVLbDMQ3eMzhAXVkYY+oqhIBxqLgcdfwWtttFC4+KFTp5bo9OxMTB1cpyzXoyZnWzh+9pmANzvbiW+isfekHgpXL3g5m8ijKBb7j4qt6xiAHoGVmqQqoapbF3VwG1lXsywfJSUqFLDhcjJ0vULRw1HU74kYHMsn7LqEItTXVE5G5OXmw0Aj/riSihs2tBH58WeRWtcX9f5IxoULFx56XbyaCz1LkHPlotnrKSpP+Non4+xZa4yweM/nTuNcIaFq0Q7txLYtnyIUFBmgsHeAQ3k7x8ZbOHHJB+NeDzDxyDqcOpUIQeGAwH5Pw11sDaX7QHxx6ByOb3of3VykbI+U27gYn4veIwbCvfS8wo5N2JunQP2nQtHbxA3dPrUfcdniYNS+G7o7S4nVROFQq6y+CvPzxa5sJVIkrgTJJkDD9jNP8sHBVMfoiY0pSpp2Ty+naDZshMC0hb2oLQ1T1XppGbIkU/pOy7i+vB8dFCp6vx4l3mVFXGPEk1qq/d5ljCV2pSSGU1qoRVUE8ONz1VwQtQVCFlc94yLaBG/RDpp6IQPPf9pVbH81W71/WDRntkFIX8RgrZqtPzj8J01VnYotxF2MN3DgYAIMKg883u0xPDBKCqk4fDxdHALUaNSqFe6ugBqz9iEibAomjRuDUdM24IrFY4QSTk6O0PpNwNaLKUhJefh1cesE+Nn7Y9pvyWavpyStwrC6dnByFocQiylB/OlEMT6p0bJ9W2ikVPMooFSUhl6W9ZqqIvweg9jLYs35dkPPppWZJCOy9kUgbMokjBszCtM2XLF62C2X3F3YdiAPSs9+GNLbtM5u4eDBszAo6yEwqJ1ozu5SzTIZS2tLAYWyajI0R9U+WXQQ+4+Jw3DtLggKeHAsNf6+E7+eEj2muhGeesb//s1pXODpXYDYb9dg2/kSOFtuYuHYug18rqfhunMjNG7c+KGXr4czNAo7uPzD1+x1HyEDlwuboE0bB+kbLcB4Dafjr0JQNULbtm6VVJQjajuqQV0xii1QcO7+AzijV6BOYA90vK8K8bd1KCx62ItpXDzhXRCLb9dsw/kSZyvmBRVTdHA3Don2wa3n0+huanNF/3ugzP+K7f8n/1udMrG4qKy+HGs7iTK2jioJ+PZx0f/kiiNdu+7o9oD/EZC07keUbqY4d5+IiUH3b07p3hEDAzwgCBp0COoOa2yTtmN/9K0Xgw2bMsW+binipOmnTYhv9CT6tarq+psJt0/jtDj5U9i1RPvWpuoyhwoNPOtB8Uc2siuYLxp1+ci/t+ZZhEP7j6JQ7PLtHg/A/S5mROZ/XkLIh3Fi9DdFCfeOAxHgIUDQdECQrYzoPQxIPn4Gt4xqtAnoAtPFwNunDyC21P+K7R/kKiWWUb0yCTdvIke8/wb/8LC6M1ZBwAZc+O0QfhcUcPdrAU/TX8qJxILlR1FSOxBTF0xAiwdKITbEgQNIgh+6BXlVraf8Ge0TeHXMYzi04FPszZfSqogx80fMWZaMgFdfQUBl+jODkHIGCbeMUDcTJ3CVnsvRoHXbFtAUpSEl3fwgmrvnPXT2qIN6HafiYKkyi37Dtt03YFR5oXWbuvfrR3ccS5dn4snnO5sM1RLGTBw4kAT4dUOQV+U1aryxF/Ne6ofQSWtQ+RFcI/ILCkFxQlm/gbtJewm4uGcfUgQVmjwRhIZ/VpqFZTKl5PJlXEXpCFmNrXfJC5ePcJVL+zpQoVBS0/Q17ri7NKlP4boRTanRNuHwtZfNrNPmcu1QV6q9XuNO02VDXT4LLHHsedF8p5UTm43ewHTTZUmRcteBS84xYoAnHdtN5X4r9ynzfxhGV/GeG4zZykIprSIMiXMZqHXl0LXm1sJ13DupiTjRVVDbbjoPl+iZ+GV/dmzrRyd1Q46LlCpIf4VbJ3Zn0PT9NLuinruWQ13V9Hpt5wPb1br8AjOTIIGZS/vSTiHacoUTB3xd+UQ2e+0wuis1DPrfFKk9Bd6KmcNe7kpC6cHRW83UhEVlMqWEByf7UePzL+6qxrJy5QLO+4n/dFNS6RrKWZ/0Z6fgcZw56z2+1MWTbn6D+GFkuvmC6nZxvI+aLoO/ZanmhexYLpownMNf6EW/pqFcZnbzwTzFp79gSD0nthq9mgkmgjQnYOFWHBcMakSHBv24OMHqHYyyTRCNwpEDVlyTNh0qoZKzEHkxH7GnRx22fW4S3xoVwm4vRDA+L4HLhzWnR5vBnPTOaxwc2J4hM/eUe05Wt2s8fdQuHPxtWY0yO3YRJwwfzhd6+bFp6LI7mUzQxc1iZ2ex7ewd2fT1SCm1AkqSuOpFsVPVD+SYaWGcMqoPu3TtyIYaBRW1B3KlmcMglpbpHoYkzgu0r/ZZiEoFrIt+g41VCtr3DucVwcCb8bu4ft0G/hJzkTkVtKz+VBg7aLTssSCFuSe/4iuh47kmMY9nPvSnRuzNY7ZZ1u0KznzN4S1rs3az/pyybBfP5wosMRGw/uZZbl04nj297OnUejRXJ1QlbpaDkMVlT4ujjkXLWwIvh/ehS5M3GF3OmpuQn8qj0XsYeynXZMQqYVb8fkbtjOaJtIqaUs9TYR3EEa8HF6Tk8uRXrzB0/Bom5p3hh/4aKj3GSPkeRJ+bxYyDM9h//E4ppTJ0ZeXZvn4Dd8ZdYur3pVFZwVp9wpn2UHtbV6ZSynYcHVvw3YMVL1BWRiUC1ouC61S2/tsh7JT5SGsWgVcW9aa92o8jZk9m6OCZjJK2JQsTNzM8IoqXLbERdym4yG1zR/KJRk5Ua13o1ag+HVS16enrSSeNms6+3Tn6s194yRrtGnKZGn+e10qDdvEvHOulol3gXFq0PHtrM0c3bMix2x7BeWDhChf1tqfabwRnTw7l4JlRvFOlhUzcHM6IqMtl2cyR99MoDvg0SXpnjhKe+/ZNPhsSyrDIm/dHHCGTqwa5Uqny5Is/Xb+ffheryyTqanZnugUv4HlL6tcMFQtYyODiEPuyhe1xkZb0lFyuGybeuFJFlX0zDnh3PtfFZthsAby0gtKPRfHn71Zw8ZdLuOL7jdx1IsP6Y4xixF3/sq9oGTRs9X4cC+LeZytNbYYsTn240SpEz/hPu9F70MqH/Hq1yV3HYa6iHVCpaN9sAN+dv46xGVWoUeE6fxz5FGedrCBiFG7iyLqizy3dqJpx4l6gyokaz2YaFT0GrWCKOaFZW6a8KI738+PE3dXv6BUK2HBlGQeIBVTY9WVElgUtottd5n+dQ1czI+MIv58UQBeNN0duMNOL/woUb+dYT7EBxclO8BenuedN0Qd2msYYa+q3MJbTO7flG7tte7BJt7vUazozdHUGM458z0kBLtR4j+SGCh8cFXgzchJ7Pr9atH9SkjkKf+bwevXoP3wuI6UnVQviV/KfzexZJ3Aa99w0/2HryqTn2XlBfGy0bZ6JMy9gIZUR/d2pVSmp0mioFj2QUmNHtz4LqxTyS/1vx1L/O//ObFbICGdvrYbtZhwTi5/PyMmj+WVyNccOWyJkM+qdDvR4TJxMje/Hln4D+OUp66fGhUfnsneXcdxqoydvSxv9VFjHMq85vywUCswI702tph1nHBPjZX4kJ4/+8k5WU4oj+VbwaK5NrayudTy1aDC7BL3Id8Jm8G0xYrdt2Ix93vqWZ8rtxNaVqeDwbAY//sajfypZKClmsf7ujwjUFxewsEq+VfS/4o3Ya9pw2tE7HxCuLGSw9s6ZBMPVVRzSK4yl9/jXophXDm/n+o17mHCzup1L4NVtbzO4z1RGWjJylYfoNcNFr6lpM413qlSs44XB1GpLjzwaeHXVEPYKO1aWtToUph3hzg3iBF2cvJl95s8UK8pUcGIhQ7u/yBXnqjdxM6WSSZw1FHP7WE9qW0y5f7BFSOO6l/3oEziEg3s8zenR2eLt/n9HYPaRLdxj1jxaSJnF0bLFlJh78wghbR1f9vNh4JDB7PH0dEabPGr1X8HiMgm8HruVe9NsG7keyX8pMmSnIl3hDV830y3cEty4lApd/eZo6GTVvtzfGAOyU9Oh8PbFg1V6A5dSdajfvCH++1X61yiT/G+2ZGo0ciiUqdHIApap0cgClqnRyAKWqdHIApap0cgClqnRyAKWqdHIApapwQD/B1mHi4Dr1bC8AAAAAElFTkSuQmCC;" vertex="1" parent="1">
          <mxGeometry x="405" y="255" width="110" height="30" as="geometry" />
        </mxCell>
        <mxCell id="Hy3fTrSyOvGKFOA6QSp1-4" value="Cipher image" style="ellipse;whiteSpace=wrap;html=1;" vertex="1" parent="1">
          <mxGeometry x="560" y="230" width="120" height="80" as="geometry" />
        </mxCell>
        <mxCell id="Hy3fTrSyOvGKFOA6QSp1-7" value="Plain image" style="ellipse;whiteSpace=wrap;html=1;" vertex="1" parent="1">
          <mxGeometry x="80" y="130" width="120" height="80" as="geometry" />
        </mxCell>
        <mxCell id="Hy3fTrSyOvGKFOA6QSp1-12" style="edgeStyle=orthogonalEdgeStyle;rounded=0;orthogonalLoop=1;jettySize=auto;html=1;exitX=1;exitY=0.5;exitDx=0;exitDy=0;entryX=0;entryY=0.5;entryDx=0;entryDy=0;" edge="1" parent="1" source="Hy3fTrSyOvGKFOA6QSp1-8" target="Hy3fTrSyOvGKFOA6QSp1-10">
          <mxGeometry relative="1" as="geometry" />
        </mxCell>
        <mxCell id="Hy3fTrSyOvGKFOA6QSp1-15" style="edgeStyle=orthogonalEdgeStyle;rounded=0;orthogonalLoop=1;jettySize=auto;html=1;exitX=1;exitY=0.5;exitDx=0;exitDy=0;" edge="1" parent="1" source="Hy3fTrSyOvGKFOA6QSp1-8" target="Hy3fTrSyOvGKFOA6QSp1-13">
          <mxGeometry relative="1" as="geometry" />
        </mxCell>
        <mxCell id="Hy3fTrSyOvGKFOA6QSp1-8" value="Key" style="ellipse;whiteSpace=wrap;html=1;" vertex="1" parent="1">
          <mxGeometry x="-240" y="320" width="120" height="80" as="geometry" />
        </mxCell>
        <mxCell id="Hy3fTrSyOvGKFOA6QSp1-11" style="edgeStyle=orthogonalEdgeStyle;rounded=0;orthogonalLoop=1;jettySize=auto;html=1;exitX=1;exitY=0.5;exitDx=0;exitDy=0;entryX=0;entryY=0.5;entryDx=0;entryDy=0;" edge="1" parent="1" source="Hy3fTrSyOvGKFOA6QSp1-10" target="ZH4Me8C_m8PBGEsoMYlz-5">
          <mxGeometry relative="1" as="geometry" />
        </mxCell>
        <mxCell id="Hy3fTrSyOvGKFOA6QSp1-10" value="Key transformation?" style="rounded=0;whiteSpace=wrap;html=1;" vertex="1" parent="1">
          <mxGeometry x="-80" y="270" width="120" height="60" as="geometry" />
        </mxCell>
        <mxCell id="Hy3fTrSyOvGKFOA6QSp1-14" style="edgeStyle=orthogonalEdgeStyle;rounded=0;orthogonalLoop=1;jettySize=auto;html=1;exitX=1;exitY=0.5;exitDx=0;exitDy=0;" edge="1" parent="1" source="Hy3fTrSyOvGKFOA6QSp1-13" target="ZH4Me8C_m8PBGEsoMYlz-6">
          <mxGeometry relative="1" as="geometry" />
        </mxCell>
        <mxCell id="Hy3fTrSyOvGKFOA6QSp1-13" value="Key transformation?" style="rounded=0;whiteSpace=wrap;html=1;" vertex="1" parent="1">
          <mxGeometry x="-80" y="390" width="120" height="60" as="geometry" />
        </mxCell>
      </root>
    </mxGraphModel>
  </diagram>
</mxfile>
